<svg width="104" height="62" viewBox="0 0 104 62" fill="none" xmlns="http://www.w3.org/2000/svg">
<g id="Frame 1707479067">
<g id="Group 1707479447">
<path id="Union" fill-rule="evenodd" clip-rule="evenodd" d="M102.139 52.8986C102.722 53.8164 103.06 54.9054 103.06 56.0734C103.06 59.3465 100.407 61.9999 97.1336 61.9999C97.1233 61.9999 97.1131 61.9999 97.1029 61.9998L97.1027 62.0001H70.2361L70.305 61.9512C54.0007 61.0412 41.0601 47.5318 41.0601 31C41.0601 13.8792 54.9392 0 72.0601 0C89.1809 0 103.06 13.8792 103.06 31C103.06 37.1864 101.248 42.9495 98.1255 47.7876L101.525 52.0939C101.707 52.2943 101.875 52.5072 102.028 52.7312L102.148 52.8824L102.139 52.8986Z" fill="#D8D8DE"/>
<path id="Union_2" fill-rule="evenodd" clip-rule="evenodd" d="M1.86468 52.8986C1.28135 53.8164 0.943481 54.9054 0.943481 56.0734C0.943481 59.3465 3.59685 61.9999 6.86995 61.9999C6.8802 61.9999 6.89043 61.9999 6.90067 61.9998L6.90082 62.0001H33.7675L33.6985 61.9512C50.0028 61.0412 62.9435 47.5318 62.9435 31C62.9435 13.8792 49.0643 0 31.9435 0C14.8227 0 0.943481 13.8792 0.943481 31C0.943481 37.1864 2.7556 42.9495 5.87799 47.7876L2.47822 52.0939C2.29653 52.2943 2.12835 52.5072 1.97515 52.7312L1.85572 52.8824L1.86468 52.8986Z" fill="#7F7F85"/>
<path id="Vector 1115" d="M31.943 31C43.8356 39.5098 58.3445 39.5098 70.2371 31" stroke="white" stroke-width="7.29412" stroke-linecap="round"/>
</g>
</g>
</svg>
